<svg viewBox="0 0 500 500" xmlns="http://www.w3.org/2000/svg" xmlns:xlink="http://www.w3.org/1999/xlink" width="100%" id="blobSvg">
  <defs>
    <pattern id="pattern" x="0" y="0" width="40" height="40" patternUnits="userSpaceOnUse" fill="#d1d8e0">
      <path d="M0 38.59l2.83-2.83 1.41 1.41L1.41 40H0v-1.41zM0 1.4l2.83 2.83 1.41-1.41L1.41 0H0v1.41zM38.59 40l-2.83-2.83 1.41-1.41L40 38.59V40h-1.41zM40 1.41l-2.83 2.83-1.41-1.41L38.59 0H40v1.41zM20 18.6l2.83-2.83 1.41 1.41L21.41 20l2.83 2.83-1.41 1.41L20 21.41l-2.83 2.83-1.41-1.41L18.59 20l-2.83-2.83 1.41-1.41L20 18.59z"></path>
    </pattern>
  </defs>
  <path id="blob" d="M463,291Q449,332,412,353.5Q375,375,349.5,402Q324,429,287,456Q250,483,213.5,454Q177,425,132.5,418.5Q88,412,85,366Q82,320,67.5,285Q53,250,40,203.5Q27,157,71.5,136.5Q116,116,138.5,76Q161,36,205.5,39.5Q250,43,284,64.5Q318,86,357.5,94.5Q397,103,413.5,139.5Q430,176,453.5,213Q477,250,463,291Z" fill="url(#pattern)"></path>
</svg>